<?xml version="1.0" encoding="utf-8"?>
<!-- Generator: Adobe Illustrator 14.0.0, SVG Export Plug-In . SVG Version: 6.00 Build 43363)  -->
<!DOCTYPE svg PUBLIC "-//W3C//DTD SVG 1.1//EN" "http://www.w3.org/Graphics/SVG/1.1/DTD/svg11.dtd">
<svg version="1.1" xmlns="http://www.w3.org/2000/svg" xmlns:xlink="http://www.w3.org/1999/xlink" x="0px" y="0px"
	 width="595.275px" height="841.891px" viewBox="0 0 595.275 841.891" enable-background="new 0 0 595.275 841.891"
	 xml:space="preserve">
<g id="Calque_3">
</g>
<g id="document" inkscape:version="0.48.3.1 r9886" sodipodi:docname="document-symbol.svg" inkscape:export-ydpi="14.675159" inkscape:export-xdpi="14.675159" inkscape:export-filename="/home/antonin/Programmation/OA/dissemin/papers/static/document-symbol.png" xmlns:dc="http://purl.org/dc/elements/1.1/" xmlns:cc="http://creativecommons.org/ns#" xmlns:rdf="http://www.w3.org/1999/02/22-rdf-syntax-ns#" xmlns:svg="http://www.w3.org/2000/svg" xmlns:sodipodi="http://sodipodi.sourceforge.net/DTD/sodipodi-0.dtd" xmlns:inkscape="http://www.inkscape.org/namespaces/inkscape">
	<g>
		
			<image overflow="visible" opacity="0.19" width="197" height="270" xlink:href="FC842650.png"  transform="matrix(1 0 0 1 220.6379 217.9451)">
		</image>
		<g>
			<path fill="#FAFAFA" d="M402.04,263.138v189.396c0,11.046-8.954,20-20,20H256.324c-11.046,0-20-8.954-20-20V253.138
				c0-11.046,8.954-20,20-20H372.04L402.04,263.138z"/>
		</g>
	</g>
	<polygon fill="#D9D9D9" points="372.04,233.138 402.04,263.138 372.04,263.138 	"/>
	
		<sodipodi:namedview  id="base" inkscape:window-y="19" inkscape:window-x="0" inkscape:window-height="879" inkscape:window-width="798" inkscape:current-layer="g2989" inkscape:document-units="px" inkscape:pageshadow="2" inkscape:pageopacity="0.0" inkscape:window-maximized="0" inkscape:zoom="1.4" borderopacity="1.0" bordercolor="#666666" showgrid="false" pagecolor="#ffffff" inkscape:cy="678.48422" inkscape:cx="324.56324">
		</sodipodi:namedview>
	<path fill="#C4C4C4" d="M382.04,474.035H256.324c-11.855,0-20.5-9.645-20.5-21.5h1c0,10.201,9.299,18.5,19.5,18.5H382.04
		c10.201,0,19.5-8.299,19.5-18.5h1C402.54,464.39,393.896,474.035,382.04,474.035L382.04,474.035z"/>
	<path fill="#D9D9D9" d="M400.98,264.199l-29.561-29.561H256.324c-10.201,0-19.5,8.299-19.5,18.5h-1c0-11.855,8.645-21.5,20.5-21.5
		h116.337l29.439,31.439L400.98,264.199L400.98,264.199z"/>
</g>
<g id="Calque_2" display="none">
	<line display="inline" fill="none" stroke="#D4D4D4" stroke-width="6" x1="259.682" y1="317.445" x2="378.683" y2="317.445"/>
	<line display="inline" fill="none" stroke="#D4D4D4" stroke-width="6" x1="259.682" y1="337.445" x2="378.683" y2="337.445"/>
	<line display="inline" fill="none" stroke="#D4D4D4" stroke-width="6" x1="259.682" y1="357.445" x2="378.683" y2="357.445"/>
	<line display="inline" fill="none" stroke="#D4D4D4" stroke-width="6" x1="259.682" y1="377.445" x2="378.683" y2="377.445"/>
	<line display="inline" fill="none" stroke="#D4D4D4" stroke-width="6" x1="259.682" y1="397.445" x2="378.683" y2="397.445"/>
	<path display="inline" fill="#2A6496" stroke="#B8B8B8" stroke-width="4" d="M-61.862,233.445c0,11.046-8.954,20-20,20h-190
		c-11.046,0-20-8.954-20-20v-109c0-11.046,8.954-20,20-20h190c11.046,0,20,8.954,20,20V233.445z"/>
</g>
<g id="open-access" display="none">
	<g display="inline">
		
			<image overflow="visible" opacity="0.25" width="91" height="125" xlink:href="FC842651.png"  transform="matrix(1 0 0 1 314.6379 342.9451)">
		</image>
		<g>
			<g>
				<g transform="matrix(0.09828756,0,0,0.09555575,287.19364,364.59616)">
					<path inkscape:connector-curvature="0" fill="none" stroke="#F68212" stroke-width="10" d="M502.479,204.148V168.42
						c0.02-115.54,93.704-209.194,209.246-209.174c115.513,0.02,209.147,93.664,209.167,209.174v258.418"/>
					
						<ellipse sodipodi:ry="256.08301" sodipodi:rx="256.08301" sodipodi:cy="680.729" sodipodi:cx="320.004" fill="#FFFFFF" stroke="#F68212" stroke-width="10" cx="711.09" cy="576.739" rx="25.17" ry="24.47">
					</ellipse>
				</g>
				
					<ellipse sodipodi:ry="86.428703" sodipodi:rx="86.428703" sodipodi:cy="681.659" sodipodi:cx="321.01001" fill="#F68212" cx="356.848" cy="420.004" rx="8.975" ry="8.724">
				</ellipse>
			</g>
		</g>
	</g>
</g>
<g id="Calque_6">
	
		<image overflow="visible" opacity="0.25" width="97" height="114" xlink:href="FC842657.png"  transform="matrix(1 0 0 1 311.6379 341.9451)">
	</image>
	<g>
		<g>
			<path fill="#520000" d="M385.63,392.935v-10.247c-0.003-15.429-12.813-27.983-28.558-27.986c-0.002,0-0.003,0-0.005,0
				c-15.747,0-28.56,12.554-28.563,27.988v10.246c-2.854,2.194-4.701,5.632-4.701,9.51v22.732c0,6.627,5.373,12,12,12h42.527
				c6.627,0,12-5.373,12-12v-22.732C390.331,398.567,388.484,395.129,385.63,392.935z M357.068,370.702c0.001,0,0.002,0,0.003,0
				c6.924,0.001,12.559,5.379,12.56,11.988v7.755h-25.125v-7.754C344.506,376.079,350.141,370.702,357.068,370.702z"/>
		</g>
	</g>
</g>
<g id="texte_x5F_red">
	<line fill="none" stroke="#D4D4D4" stroke-width="6" x1="259.682" y1="317.445" x2="378.683" y2="317.445"/>
	<line fill="none" stroke="#D4D4D4" stroke-width="6" x1="259.682" y1="337.445" x2="378.683" y2="337.445"/>
	<line fill="none" stroke="#D4D4D4" stroke-width="6" x1="259.682" y1="357.445" x2="315.728" y2="357.445"/>
	<line fill="none" stroke="#D4D4D4" stroke-width="6" x1="259.682" y1="377.445" x2="315.728" y2="377.445"/>
	<line fill="none" stroke="#D4D4D4" stroke-width="6" x1="259.682" y1="397.445" x2="315.728" y2="397.445"/>
</g>
<g id="pdf">
	<g>
		<g>
			
				<image overflow="visible" opacity="0.25" width="125" height="72" xlink:href="FC842652.png"  transform="matrix(1 0 0 1 212.638 243.9451)">
			</image>
			<g>
				<path fill="#B70909" d="M319.183,285.445c0,6.627-3.837,12-8.568,12h-76.908c-4.732,0-8.568-5.373-8.568-12v-17.307
					c0-6.627,3.836-12,8.568-12h76.908c4.731,0,8.568,5.373,8.568,12V285.445z"/>
			</g>
		</g>
		<path fill="#A30808" d="M317.183,268.138h2c0-6.065-4.396-11-8.568-11h-76.908c-4.173,0-8.568,4.935-8.568,11l0,0
			c0-7.168,3.292-13,8.568-13h76.908c5.276,0,8.568,5.832,8.568,13H317.183z"/>
		<path fill="#7A0606" d="M310.615,298.445h-76.908c-5.276,0-8.568-5.832-8.568-13l0,0c0,6.065,4.395,11,8.568,11h76.908
			c4.173,0,8.568-4.935,8.568-11l0,0C319.183,292.614,315.891,298.445,310.615,298.445L310.615,298.445z"/>
		<text transform="matrix(1 0 0 1 244.4529 287.4451)" fill="#FFFFFF" font-family="'OpenSans-Semibold'" font-size="30">PDF</text>
	</g>
</g>
</svg>
