<?xml version="1.0" encoding="utf-8"?>
<!-- Generator: Adobe Illustrator 14.0.0, SVG Export Plug-In . SVG Version: 6.00 Build 43363)  -->
<!DOCTYPE svg PUBLIC "-//W3C//DTD SVG 1.1//EN" "http://www.w3.org/Graphics/SVG/1.1/DTD/svg11.dtd">
<svg version="1.1" xmlns="http://www.w3.org/2000/svg" xmlns:xlink="http://www.w3.org/1999/xlink" x="0px" y="0px"
	 width="148.323px" height="190.604px" viewBox="0 0 148.323 190.604" enable-background="new 0 0 148.323 190.604"
	 xml:space="preserve">
<g id="Calque_2" display="none">
	<rect x="-181.879" y="-75.167" display="inline" width="548.322" height="342.953"/>
</g>
<g id="Calque_1">
	<g>
		<g>
			<path fill="#FFFFFF" d="M50.903,142.941l-0.805,12.49H14.887v-2.111c0.6-0.045,1.395-0.113,2.393-0.244
				c0.996-0.133,1.645-0.266,1.943-0.4c0.637-0.307,1.08-0.697,1.336-1.176c0.242-0.486,0.363-1.094,0.363-1.818v-30.496
				c0-0.658-0.1-1.238-0.32-1.74c-0.223-0.516-0.682-0.922-1.379-1.252c-0.537-0.25-1.262-0.494-2.168-0.684
				c-0.906-0.205-1.629-0.332-2.168-0.354v-2.125H47.7v10.213h-2.232c-0.402-1.506-1.262-3.125-2.588-4.82
				c-1.326-1.707-2.58-2.635-3.775-2.789c-0.621-0.08-1.363-0.15-2.221-0.197c-0.857-0.021-1.834-0.045-2.922-0.045h-6.666v16.857
				h4.777c1.537,0,2.65-0.148,3.367-0.438c0.705-0.277,1.326-0.768,1.865-1.449c0.436-0.578,0.813-1.346,1.119-2.314
				c0.313-0.969,0.512-1.887,0.615-2.734h2.238v16.617H39.04c-0.086-0.951-0.291-1.969-0.643-3.029
				c-0.352-1.059-0.719-1.838-1.092-2.326c-0.619-0.781-1.324-1.275-2.105-1.514c-0.789-0.25-1.828-0.373-3.127-0.373h-4.777v12.732
				c0,1.254,0.092,2.268,0.268,3.004c0.18,0.725,0.527,1.291,1.041,1.678c0.521,0.371,1.232,0.604,2.133,0.721
				c0.889,0.119,2.164,0.172,3.82,0.172c0.65,0,1.523,0,2.602,0c1.07,0,1.977-0.045,2.719-0.125c0.756-0.08,1.533-0.229,2.346-0.438
				c0.811-0.197,1.373-0.498,1.719-0.848c0.912-0.965,1.873-2.412,2.877-4.357c1.01-1.943,1.652-3.367,1.936-4.287H50.903z"/>
			<path fill="#FFFFFF" d="M102.214,115.156c-0.555,0.01-1.419,0.182-2.572,0.479c-1.156,0.291-1.981,0.615-2.477,0.908
				c-0.716,0.512-1.193,1.479-1.45,2.895c-0.257,1.406-0.371,3.195-0.371,5.359v31.068h-2.6L67.04,121.16v21.877
				c0,2.451,0.152,4.324,0.461,5.639c0.311,1.326,0.785,2.258,1.426,2.824c0.453,0.432,1.398,0.846,2.832,1.221
				c1.436,0.371,2.383,0.578,2.842,0.6v2.111H57.209v-2.111c0.531-0.045,1.439-0.234,2.715-0.582
				c1.275-0.357,2.076-0.672,2.395-0.941c0.695-0.557,1.176-1.406,1.43-2.555c0.264-1.15,0.393-3.117,0.393-5.871v-20.91
				c0-0.904-0.158-1.824-0.48-2.744c-0.318-0.904-0.75-1.627-1.287-2.113c-0.721-0.668-1.682-1.215-2.912-1.688
				c-1.229-0.479-2.213-0.738-2.973-0.76v-2.125h12.115l23.845,32.328v-20.172c0-2.471-0.171-4.367-0.489-5.688
				c-0.315-1.332-0.77-2.209-1.371-2.65c-0.566-0.371-1.471-0.73-2.734-1.105c-1.252-0.352-2.218-0.566-2.876-0.588v-2.125h17.236
				V115.156z"/>
			<path fill="#FFFFFF" d="M135.494,135.988c0.909,0.986,1.571,2.082,1.993,3.266c0.438,1.197,0.65,2.572,0.65,4.135
				c0,3.754-1.377,6.834-4.155,9.287c-2.768,2.412-6.206,3.635-10.311,3.635c-1.903,0-3.797-0.303-5.679-0.885
				c-1.894-0.584-3.525-1.309-4.896-2.133l-1.288,2.182h-2.405l-0.406-14.533h2.419c0.498,1.803,1.079,3.414,1.743,4.859
				c0.663,1.445,1.55,2.791,2.65,4.051c1.043,1.168,2.242,2.121,3.644,2.824c1.375,0.678,2.981,1.035,4.818,1.035
				c1.37,0,2.564-0.182,3.588-0.543c1.041-0.354,1.878-0.869,2.503-1.527c0.632-0.658,1.116-1.426,1.416-2.316
				c0.313-0.881,0.456-1.902,0.456-3.074c0-1.689-0.464-3.268-1.426-4.736c-0.94-1.459-2.377-2.566-4.271-3.34
				c-1.292-0.508-2.781-1.084-4.46-1.699c-1.678-0.639-3.111-1.223-4.326-1.789c-2.391-1.066-4.253-2.48-5.574-4.217
				c-1.33-1.754-1.989-4.035-1.989-6.836c0-1.598,0.321-3.121,0.988-4.502c0.658-1.396,1.588-2.648,2.812-3.738
				c1.146-1.031,2.511-1.855,4.099-2.439c1.564-0.582,3.216-0.877,4.915-0.877c1.95,0,3.704,0.299,5.251,0.889
				c1.548,0.611,2.961,1.303,4.232,2.105l1.229-2.039h2.391l0.229,14.086h-2.421c-0.442-1.619-0.929-3.168-1.474-4.656
				c-0.54-1.461-1.266-2.799-2.126-3.988c-0.871-1.156-1.923-2.078-3.157-2.777c-1.234-0.672-2.742-1.016-4.521-1.016
				c-1.904,0-3.516,0.607-4.853,1.818c-1.325,1.215-2.014,2.691-2.014,4.451c0,1.838,0.438,3.355,1.299,4.555
				c0.852,1.219,2.091,2.201,3.724,2.984c1.463,0.703,2.899,1.295,4.288,1.811c1.412,0.494,2.775,1.053,4.09,1.629
				c1.193,0.512,2.344,1.105,3.448,1.75C133.725,134.335,134.69,135.115,135.494,135.988z"/>
		</g>
		<path fill="#FFFFFF" d="M104.398,28.671l3.376-3.995c-3.284-8.88-18.988-15.774-31.402-15.774
			c-12.674,0-28.43,7.035-31.539,16.106l3.107,3.663H104.398z M48.956,25.376c1.576-8.055,16.467-14.078,27.504-14.078
			c10.812,0,25.99,6.969,27.5,14.063l0.215,1.015H48.758L48.956,25.376z"/>
		<g>
			<polygon fill="#FFFFFF" points="59.614,37.453 69.243,41.919 69.243,57.388 59.614,54.436 			"/>
			<polygon fill="#FFFFFF" points="59.614,56.064 69.243,59.005 69.243,73.314 59.614,76.262 			"/>
			<polygon fill="#FFFFFF" points="59.614,77.89 69.243,74.942 69.243,89.311 59.614,93.53 			"/>
			<polygon fill="#FFFFFF" points="83.457,41.919 93.084,37.453 93.084,54.479 83.457,57.43 			"/>
			<polygon fill="#FFFFFF" points="83.457,59.052 93.084,56.107 93.084,76.357 83.457,73.42 			"/>
			<polygon fill="#FFFFFF" points="83.457,75.049 93.084,77.987 93.084,93.53 83.457,89.311 			"/>
		</g>
		<g>
			<path fill="#FFFFFF" d="M78.215,15.399c-0.328-0.005-0.586,0.14-0.791,0.442c-0.195,0.307-0.301,0.706-0.301,1.188
				c0,0.693,0.135,1.25,0.404,1.688c0.266,0.438,0.609,0.655,1.034,0.665c0.348,0.004,0.633-0.138,0.863-0.433
				c0.233-0.289,0.356-0.652,0.356-1.09c0-0.642-0.155-1.208-0.469-1.706C78.997,15.666,78.626,15.411,78.215,15.399z"/>
			<path fill="#FFFFFF" d="M84.626,17.303c0-0.063-0.021-0.1-0.061-0.102c-0.017-0.001-0.066,0.042-0.143,0.142
				c-0.075,0.09-0.116,0.139-0.177,0.235c-0.24,0.29-0.359,0.438-0.576,0.737c-0.239,0.293-0.503,0.681-0.802,1.161
				c-0.05,0.083-0.109,0.145-0.124,0.185c-0.043,0.05-0.056,0.107-0.056,0.144c0.002,0.055,0.063,0.092,0.211,0.095
				c0.058,0.002,0.097,0.004,0.171,0.014c0.549,0.023,0.815,0.042,1.364,0.063c0.126,0.009,0.194-0.076,0.194-0.253
				c0-0.059,0-0.079-0.001-0.137c0-0.377,0-0.573,0-0.953c-0.002-0.251-0.002-0.376-0.018-0.627
				c0.016-0.219,0.016-0.338,0.019-0.558C84.628,17.389,84.628,17.355,84.626,17.303z"/>
			<path fill="#FFFFFF" d="M76.453,12.347c-9.969,0-21.747,6.079-23.759,12.343h47.484C98.023,18.729,86.269,12.347,76.453,12.347z
				 M68.86,22.76c-0.066,0-0.299-0.009-0.68-0.042c-0.207-0.02-0.486-0.023-0.84-0.021c-0.359,0.003-0.668,0.033-0.92,0.062
				c-0.102,0.018-0.174,0.021-0.219,0.021c-0.096,0.001-0.137-0.046-0.137-0.141c0-0.071,0.041-0.118,0.139-0.132
				c0.363-0.064,0.607-0.152,0.713-0.271c0.111-0.108,0.158-0.321,0.158-0.637c-0.002-0.083-0.002-0.122-0.004-0.208
				c0-1.646,0-2.479-0.002-4.125c0-0.378-0.143-0.552-0.436-0.521c-0.109,0.019-0.213,0.055-0.301,0.099
				c-0.045,0.028-0.078,0.046-0.129,0.081c-0.041,0.021-0.076,0.028-0.105,0.03c-0.086,0.013-0.143-0.024-0.143-0.109
				c0-0.084,0.047-0.156,0.143-0.217c0.082-0.057,0.26-0.139,0.531-0.231c0.506-0.184,0.877-0.379,1.09-0.62
				c0.094-0.098,0.15-0.155,0.252-0.263c0.031-0.04,0.086-0.065,0.146-0.075c0.066-0.005,0.102,0.061,0.102,0.204
				c0,0.04-0.008,0.106-0.01,0.211c-0.023,0.205-0.025,0.3-0.041,0.508c-0.01,0.099-0.012,0.21-0.012,0.337
				c0,1.892,0.002,2.836,0.002,4.729c-0.002,0.09-0.002,0.138-0.008,0.234c0.027,0.123,0.033,0.185,0.055,0.31
				c0.104,0.281,0.402,0.433,0.898,0.449c0.139,0.002,0.217,0.057,0.217,0.142C69.321,22.692,69.17,22.759,68.86,22.76z
				 M74.096,17.584c-0.203,0.511-0.297,0.769-0.488,1.268c-0.496,1.293-0.738,2.259-0.738,2.912
				c0.002,0.362,0.027,0.651,0.076,0.867c0.031,0.104,0.037,0.163,0.063,0.271c0.012,0.018,0.012,0.043,0.012,0.065
				c0,0.064-0.059,0.107-0.162,0.132c-0.021,0.002-0.049,0.018-0.094,0.032c-0.285,0.095-0.5,0.151-0.646,0.151
				c-0.209,0-0.34-0.057-0.412-0.151c-0.07-0.102-0.107-0.298-0.109-0.591c0-0.899,0.285-1.808,0.861-2.752
				c0.215-0.359,0.332-0.546,0.551-0.919c0.252-0.413,0.482-0.868,0.695-1.376c0.221-0.502,0.328-0.84,0.328-1.007
				c0-0.125-0.121-0.187-0.357-0.176c-0.563,0.022-0.84,0.028-1.402,0.055c-0.191,0.01-0.283,0.011-0.471,0.014
				c-0.215,0.059-0.33,0.085-0.543,0.145c-0.23,0.129-0.375,0.362-0.416,0.682c-0.023,0.171-0.07,0.269-0.146,0.273
				c-0.098,0.015-0.158-0.08-0.158-0.274c0-0.322,0.053-0.676,0.156-1.04c0.059-0.187,0.086-0.271,0.145-0.457
				c0.016-0.086,0.018-0.132,0.039-0.214c0.006-0.099,0.072-0.148,0.188-0.159c0.031-0.002,0.105-0.008,0.213-0.005
				c0.105,0.003,0.32-0.006,0.65-0.024c0.865-0.059,1.301-0.081,2.164-0.108c0.219-0.01,0.357,0.012,0.412,0.053
				c0.057,0.042,0.084,0.159,0.084,0.334C74.588,16.061,74.418,16.731,74.096,17.584z M79.842,21.163
				c-0.693,0.875-1.563,1.426-2.613,1.634c-0.17,0.043-0.248,0.052-0.42,0.089c-0.043,0.016-0.084,0.017-0.125,0.017
				c-0.09,0-0.131-0.061-0.129-0.172c0.002-0.062,0.021-0.101,0.047-0.12c0.021-0.015,0.111-0.041,0.279-0.08
				c0.502-0.126,0.996-0.421,1.467-0.867c0.477-0.459,0.797-0.93,0.951-1.431c0.041-0.133,0.063-0.202,0.104-0.331
				c0.04-0.107,0.059-0.195,0.059-0.264c0-0.117-0.046-0.177-0.123-0.169c-0.03,0.001-0.084,0.026-0.132,0.066
				c-0.188,0.144-0.423,0.27-0.695,0.366c-0.274,0.102-0.499,0.159-0.685,0.157c-0.494-0.001-0.906-0.222-1.244-0.652
				c-0.336-0.437-0.504-0.965-0.504-1.599c0-0.817,0.227-1.491,0.688-2.016c0.451-0.52,1.031-0.776,1.736-0.754
				c0.707,0.022,1.272,0.339,1.718,0.938c0.448,0.597,0.673,1.332,0.673,2.23C80.893,19.312,80.542,20.294,79.842,21.163z
				 M86.774,19.852c-0.021,0.068-0.041,0.213-0.063,0.446c-0.014,0.314-0.06,0.518-0.133,0.603
				c-0.059,0.085-0.221,0.115-0.461,0.111c-0.058-0.004-0.093-0.004-0.164-0.018c-0.104-0.001-0.178,0.019-0.213,0.055
				c-0.015,0.029-0.021,0.127-0.021,0.275c-0.002,0.68-0.002,1.027-0.002,1.708c-0.018,0.124-0.11,0.187-0.267,0.187
				c-0.147,0.023-0.223,0.037-0.359,0.061c-0.114,0.01-0.21,0.031-0.285,0.062c-0.053,0.01-0.092,0.028-0.133,0.028
				c-0.08,0.006-0.126-0.03-0.126-0.131c0-0.04,0.003-0.088,0.011-0.164c0.044-0.165,0.067-0.355,0.067-0.57
				c0-0.488,0-0.735,0-1.219c0.002-0.062,0.003-0.09,0.003-0.153c-0.024-0.058-0.032-0.086-0.068-0.146
				c-0.021-0.037-0.135-0.059-0.307-0.063c-0.833-0.033-1.258-0.053-2.101-0.063c-0.157-0.002-0.259-0.022-0.306-0.057
				c-0.038-0.027-0.074-0.091-0.074-0.192c0-0.187,0.424-0.919,1.271-2.107c0.631-0.899,1.205-1.634,1.708-2.213
				c0.503-0.582,0.801-0.854,0.895-0.839c0.042,0.009,0.079,0.053,0.079,0.149c-0.002,0.188-0.002,0.277-0.002,0.463
				c-0.002,0.19-0.002,0.294-0.004,0.483c0,1.285,0,1.935,0,3.224c0.004,0.062,0.006,0.088,0.013,0.148
				c0.036,0.056,0.119,0.097,0.283,0.103c0.264,0.017,0.439-0.088,0.519-0.315c0.011-0.063,0.053-0.089,0.113-0.089
				c0.085,0.004,0.132,0.046,0.132,0.13C86.78,19.785,86.778,19.813,86.774,19.852z"/>
		</g>
		<polygon fill="#FFFFFF" points="61.745,36.523 70.901,40.857 70.901,90.678 61.745,94.741 90.909,94.741 81.77,90.678 
			81.77,40.856 90.909,36.523 		"/>
		<g>
			<path fill="#FFFFFF" d="M141.226,93.704c-0.31-0.904,0.104-8.672,0-10.18c-0.099-1.511-3.135-2.827-4.037-3.522
				c-0.901-0.706,0.212-7.552,0.414-8.056c0.194-0.497-1.73-2.515-1.73-2.515h-2.921c1.115-0.308,1.436-3.925,1.436-3.925
				l1.485-2.42l-2.507-0.499L130.15,65.3l-1.217-0.302l-3.716,2.711c0,0-0.708,0.113-1.611,0c-0.927-0.093-3.929-4.218-3.929-4.218
				s0-1.309,0.295-1.912c0.318-0.614-1.819-3.129-1.819-3.129s-0.492-1.513-0.197-1.513c0.315,0,0.608-0.903,0.608-0.903
				l0.413-1.004h0.897l0.098-1.912c0,0,0.516-0.405,0.516-0.805c0-0.406,0-1.415,0-1.415v-1.814
				c-1.314-2.115-4.629-2.92-5.748-2.809c-1.113,0.098-3.824,1.192-4.938,2.299c-1.1,1.108-3.53,7.46-3.53,7.46
				s-0.302,0.527-0.689,1.02v39.689h0.609v5.809h31.901c0-0.832-0.758-1.701-1.688-1.701h-1.257v-0.693c0,0,1.195-0.203,1.75-0.289
				c0.463-0.063,1.927-0.043,2.106-0.533c0.206-0.523,0.109-4.027,0.109-4.027S141.525,94.612,141.226,93.704z"/>
			<path fill="#FFFFFF" d="M99.599,96.743V35.467h-0.604v-4.962H53.696v4.962h-0.552l-0.008,61.276h0.56v5.809h45.299v-5.809H99.599
				z M94.947,96.524h-0.023h-37.14V34.717h37.14h0.023V96.524z"/>
			<path fill="#FFFFFF" d="M47.061,96.743V58.194c-0.358-0.24-0.595-0.407-0.566-0.436c0.107-0.098-0.387-1.303-0.996-1.697
				c-0.52-0.348-1.041-2.739-1.16-3.371c0.031-0.022,0.066-0.072,0.076-0.169c0.109-0.906,0.094-1.628,0-2.214
				c-0.029-0.209-0.066-0.419-0.104-0.653c-0.209-0.921-0.74-1.365-1.197-1.588c-0.377-0.22-0.705-0.227-0.705-0.227l-0.039,0.022
				c-0.037,0-0.072,0-0.072,0s-0.027,0.044-0.059,0.088l-0.133,0.094c0,0,0,0.006,0.014,0.022h-0.014
				c-0.064-0.133-0.094-0.204-0.094-0.204s-0.141-0.138-0.389-0.334c-0.016-0.004-0.016-0.004-0.021-0.022
				c-0.586-0.431-1.74-1.16-3.111-1.23c-0.045,0-0.086-0.019-0.133-0.019c-0.01,0-0.025,0-0.047,0
				c-0.348-0.006-0.691,0.076-1.031,0.196c-1.615,0.528-2.816,1.873-3.566,2.703c-0.898,0.997,0.395,3.815,0.395,3.815l0.201,2.689
				l1.102-0.308c0,0,1.09,1.902,1.699,2.21C37.711,57.853,39,57.053,39,57.053l0.314,1.697c0,0-1.311,0.511-2.113,0.713
				c-0.799,0.198-3.893,4.094-3.893,4.094l0.502,0.597l-0.404,1.503c0,0-0.396-0.196-1.004-0.598
				c-0.594-0.412-2.088-1.697-2.088-1.697l-1.203-1.409c0,0-1.709-1.694-2.096-1.792c-0.412-0.099-0.801-0.801-1.311-1.003
				c-0.494-0.198-0.494,0.504-0.494,0.504l0.697,0.997l-1.195-0.307c0,0-0.404-0.69-0.707-0.69c-0.289,0-0.492,0.788-0.492,0.788
				s0.893,1.409,1.199,1.809c0.297,0.4,0.898-0.208,1.195,0.4c0.307,0.598,2.4,1.298,2.4,1.298s0.016,0.029,0.037,0.09l2.561,4.908
				l-3.602-0.307l-0.893-0.592l-3.207-0.11c0,0-1.439,0.013-2.307,0.198c-0.15,0.033-0.283,0.072-0.383,0.109
				c-0.703,0.297-2.4,1.502-2.805,1.897c-0.396,0.404,0.209,1.895,0,2.202c-0.205,0.296,0.404,1.391-0.098,1.697
				c-0.494,0.297-1.805,6.211-1.904,6.994c-0.092,0.799-0.289,3.802-0.289,4.806c0,0.99-0.898,3.199-0.898,3.199l-1.305,1.396
				l0.604,0.303c0,0-0.797,2.158-1.01,2.998c-0.137,0.547-1.77,1.232-2.289,1.488c-0.525,0.281-1.596,1.738-1.41,2.111
				c0.236,0.459,1.699,0.094,1.699,0.094s3.912-1.826,3.809-1.098c-0.248,1.605,3.754,4.389,3.754,4.389v0.119h-2.15
				c-0.934,0-1.688,0.869-1.688,1.701h31.963v-5.809H47.061z"/>
		</g>
		<path fill="#FFFFFF" d="M47.061,35.467h-0.563V29.85c-0.788-0.361-1.729-0.261-2.199,0.017c-3.68,2.157,0.354,6.931,1.637,10.17
			c0.795,1.996,0.283,2.149,0.174,1.946c-0.455-0.913-2.164-0.529-1.811,0.963c0.354,1.496,1.869,0.952,1.053,1.223
			C44.5,44.461,45.09,45.4,45.09,45.4l1.971,1.85V35.467z"/>
		<path fill="#FFFFFF" d="M106.558,41.982c-0.118,0.203-0.642,0.05,0.15-1.946c1.302-3.239,5.33-8.013,1.662-10.17
			c-0.486-0.283-1.398-0.391-2.179-0.152v5.753h-0.609v11.791l1.985-1.857c0,0,0.596-0.939-0.262-1.232
			c-0.817-0.271,0.704,0.273,1.064-1.223C108.7,41.453,107.009,41.069,106.558,41.982z"/>
		<rect x="47.999" y="31.159" fill="#FFFFFF" width="4.197" height="2.808"/>
		<g>
			<rect x="101.352" y="48.171" fill="#FFFFFF" width="2.483" height="48.572"/>
			<rect x="48.801" y="48.171" fill="#FFFFFF" width="2.59" height="48.572"/>
			<rect x="47.998" y="98.243" fill="#FFFFFF" width="4.197" height="3.014"/>
			<rect x="100.495" y="98.243" fill="#FFFFFF" width="4.197" height="3.014"/>
			<rect x="47.999" y="31.159" fill="#FFFFFF" width="4.197" height="2.808"/>
			<rect x="100.495" y="31.159" fill="#FFFFFF" width="4.197" height="2.808"/>
			<rect x="48.801" y="35.467" fill="#FFFFFF" width="2.59" height="11.204"/>
			<rect x="101.352" y="35.467" fill="#FFFFFF" width="2.483" height="11.204"/>
		</g>
	</g>
	<text transform="matrix(1 0 0 1 39.2275 178.6196)" fill="#FFFFFF" font-family="'OpenSans'" font-size="21">.dissem.in</text>
</g>
</svg>
