<?xml version="1.0" encoding="UTF-8" standalone="no"?>
<!-- Created with Inkscape (http://www.inkscape.org/) -->

<svg
   xmlns:dc="http://purl.org/dc/elements/1.1/"
   xmlns:cc="http://creativecommons.org/ns#"
   xmlns:rdf="http://www.w3.org/1999/02/22-rdf-syntax-ns#"
   xmlns:svg="http://www.w3.org/2000/svg"
   xmlns="http://www.w3.org/2000/svg"
   version="1.1"
   width="285.39999"
   height="113.3875"
   id="svg2"
   xml:space="preserve"><metadata
     id="metadata8"><rdf:RDF><cc:Work
         rdf:about=""><dc:format>image/svg+xml</dc:format><dc:type
           rdf:resource="http://purl.org/dc/dcmitype/StillImage" /><dc:title></dc:title></cc:Work></rdf:RDF></metadata><defs
     id="defs6"><clipPath
       id="clipPath104"><path
         d="m 989.496,137.461 1293.5,0 0,647.168 -1293.5,0 0,-647.168 z"
         id="path106" /></clipPath><clipPath
       id="clipPath158"><path
         d="m 989.496,137.461 1293.5,0 0,647.168 -1293.5,0 0,-647.168 z"
         id="path160" /></clipPath></defs><g
     transform="matrix(1.25,0,0,-1.25,0,113.3875)"
     id="g10"><g
       transform="scale(0.1,0.1)"
       id="g12"><path
         d="m 863.188,905.547 0,-878.7384"
         id="path14"
         style="fill:none;stroke:#918f90;stroke-width:15;stroke-linecap:butt;stroke-linejoin:miter;stroke-miterlimit:10;stroke-opacity:1;stroke-dasharray:none" /><g
         transform="scale(10,10)"
         id="g16"><text
           transform="matrix(0.99999,0,0,-1,2.60742,9.36602)"
           id="text18"><tspan
             x="0 4.6206589 9.1768551 14.317048 18.652536 25.562765 30.834307 35.974499 40.871521 47.059479 51.781208 56.117191"
             y="0"
             id="tspan20"
             style="font-size:5.72344017px;font-variant:normal;font-weight:normal;writing-mode:lr-tb;fill:#4a463d;fill-opacity:1;fill-rule:nonzero;stroke:none;font-family:Georgia;-inkscape-font-specification:Georgia">ÉCOLENORMALE</tspan><tspan
             x="0 5.7686095 12.654423 18.702335 24.999094 31.572401 36.359562 42.656986 49.542801 56.116108"
             y="6.86797"
             id="tspan22"
             style="font-size:5.72344017px;font-variant:normal;font-weight:normal;writing-mode:lr-tb;fill:#4a463d;fill-opacity:1;fill-rule:nonzero;stroke:none;font-family:Georgia;-inkscape-font-specification:Georgia">SUPÉRIEURE</tspan></text>
</g><path
         d="m 203.031,247.773 -3.91,-60.656 -170.9765,0 0,10.254 c 2.9141,0.219 6.7735,0.551 11.625,1.195 4.8243,0.633 7.9688,1.278 9.4258,1.942 3.0938,1.496 5.2422,3.379 6.4844,5.715 1.1797,2.363 1.7617,5.293 1.7617,8.816 l 0,148.086 c 0,3.203 -0.4766,6.016 -1.5508,8.457 -1.082,2.5 -3.3008,4.473 -6.6953,6.082 -2.6133,1.215 -6.1172,2.395 -10.5273,3.313 -4.3946,1.007 -7.9102,1.621 -10.5235,1.718 l 0,10.313 159.3325,0 0,-49.578 -10.84,0 c -1.953,7.312 -6.125,15.156 -12.567,23.394 -6.437,8.305 -12.539,12.793 -18.34,13.547 -3.011,0.391 -6.613,0.723 -10.773,0.957 -4.172,0.098 -8.91,0.195 -14.199,0.195 l -32.3674,0 0,-81.828 23.2074,0 c 7.461,0 12.859,0.715 16.336,2.121 3.429,1.348 6.453,3.731 9.062,7.043 2.121,2.801 3.945,6.532 5.442,11.231 1.515,4.707 2.484,9.148 2.984,13.269 l 10.867,0 0,-80.683 -10.867,0 c -0.41,4.621 -1.418,9.558 -3.121,14.707 -1.711,5.156 -3.492,8.937 -5.305,11.301 -2.996,3.796 -6.434,6.179 -10.219,7.343 -3.832,1.219 -8.882,1.832 -15.179,1.832 l -23.2074,0 0,-61.843 c 0,-6.094 0.4492,-11.016 1.2969,-14.59 0.8828,-3.516 2.5625,-6.27 5.0625,-8.133 2.5352,-1.809 5.98,-2.941 10.355,-3.508 4.309,-0.586 10.508,-0.82 18.551,-0.82 3.164,0 7.399,0 12.633,0 5.191,0 9.594,0.215 13.203,0.597 3.668,0.372 7.446,1.09 11.383,2.129 3.934,0.957 6.676,2.411 8.355,4.11 4.422,4.679 9.094,11.719 13.961,21.172 4.911,9.414 8.032,16.328 9.403,20.8 l 10.437,0"
         id="path24"
         style="fill:#341538;fill-opacity:1;fill-rule:nonzero;stroke:none" /><path
         d="m 452.184,382.695 c -2.696,-0.047 -6.895,-0.886 -12.493,-2.324 -5.605,-1.418 -9.617,-2.988 -12.031,-4.402 -3.476,-2.492 -5.789,-7.18 -7.031,-14.055 -1.25,-6.824 -1.805,-15.527 -1.805,-26.035 l 0,-150.859 -12.629,0 -124.812,168.515 0,-106.219 c 0,-11.906 0.734,-20.996 2.234,-27.394 1.512,-6.426 3.817,-10.957 6.926,-13.699 2.199,-2.102 6.781,-4.114 13.754,-5.942 6.969,-1.785 11.566,-2.808 13.789,-2.91 l 0,-10.254 -84.441,0 0,10.254 c 2.589,0.219 6.992,1.137 13.191,2.844 6.191,1.719 10.078,3.242 11.621,4.562 3.379,2.684 5.715,6.825 6.949,12.411 1.274,5.578 1.903,15.128 1.903,28.496 l 0,101.543 c 0,4.394 -0.77,8.847 -2.336,13.308 -1.539,4.406 -3.633,7.91 -6.246,10.285 -3.497,3.223 -8.161,5.899 -14.137,8.172 -5.973,2.348 -10.75,3.606 -14.438,3.703 l 0,10.313 58.828,0 115.79,-156.981 0,97.957 c 0,12 -0.84,21.211 -2.383,27.618 -1.524,6.457 -3.731,10.714 -6.66,12.863 -2.754,1.805 -7.137,3.543 -13.278,5.371 -6.07,1.687 -10.765,2.762 -13.965,2.859 l 0,10.313 83.7,0 0,-10.313"
         id="path26"
         style="fill:#341538;fill-opacity:1;fill-rule:nonzero;stroke:none" /><path
         d="m 613.785,281.531 c 4.403,-4.785 7.625,-10.105 9.688,-15.847 2.109,-5.821 3.152,-12.481 3.152,-20.086 0,-18.203 -6.687,-33.188 -20.176,-45.09 -13.445,-11.699 -30.144,-17.656 -50.066,-17.656 -9.25,0 -18.438,1.464 -27.59,4.296 -9.188,2.825 -17.117,6.368 -23.758,10.372 l -6.262,-10.586 -11.679,0 -1.973,70.546 11.75,0 c 2.41,-8.757 5.242,-16.574 8.457,-23.593 3.223,-7.012 7.527,-13.555 12.879,-19.676 5.051,-5.656 10.891,-10.285 17.695,-13.703 6.672,-3.301 14.473,-5.039 23.391,-5.039 6.648,0 12.449,0.89 17.43,2.644 5.05,1.711 9.113,4.211 12.148,7.414 3.067,3.196 5.43,6.922 6.867,11.25 1.524,4.289 2.215,9.239 2.215,14.922 0,8.203 -2.246,15.871 -6.922,23.008 -4.562,7.078 -11.543,12.473 -20.734,16.223 -6.277,2.461 -13.504,5.254 -21.649,8.242 -8.156,3.113 -15.117,5.957 -21.007,8.711 -11.61,5.137 -20.664,12.019 -27.071,20.445 -6.465,8.52 -9.668,19.582 -9.668,33.203 0,7.766 1.575,15.16 4.805,21.86 3.195,6.785 7.715,12.871 13.652,18.132 5.567,5.02 12.2,9.012 19.903,11.868 7.597,2.808 15.605,4.257 23.859,4.257 9.481,0 17.996,-1.449 25.508,-4.308 7.519,-2.969 14.375,-6.348 20.535,-10.242 l 5.996,9.91 11.594,0 1.113,-68.406 -11.758,0 c -2.148,7.871 -4.511,15.398 -7.148,22.625 -2.629,7.089 -6.145,13.593 -10.324,19.355 -4.239,5.625 -9.336,10.098 -15.34,13.496 -5.996,3.262 -13.313,4.942 -21.953,4.942 -9.239,0 -17.063,-2.95 -23.567,-8.86 -6.433,-5.887 -9.765,-13.062 -9.765,-21.59 0,-8.925 2.121,-16.297 6.3,-22.136 4.141,-5.911 10.145,-10.676 18.075,-14.473 7.109,-3.422 14.082,-6.301 20.832,-8.809 6.855,-2.382 13.476,-5.097 19.851,-7.902 5.801,-2.48 11.379,-5.352 16.739,-8.496 5.39,-3.184 10.07,-6.965 13.976,-11.223"
         id="path28"
         style="fill:#341538;fill-opacity:1;fill-rule:nonzero;stroke:none" /><path
         d="m 641.625,536.289 c -0.496,7.344 -15.234,13.731 -19.609,17.109 -4.383,3.426 1.027,36.661 2.011,39.102 0.938,2.422 -8.406,12.227 -8.406,12.227 l -14.191,0 c 5.422,1.496 6.984,19.05 6.984,19.05 l 7.207,11.75 -12.18,2.434 -15.613,-13.176 -5.898,1.465 -18.059,-13.164 c 0,0 -3.418,-0.547 -7.812,0 -4.5,0.441 -19.082,20.469 -19.082,20.469 0,0 0,6.367 1.437,9.297 1.551,2.988 -8.828,15.195 -8.828,15.195 0,0 -2.395,7.344 -0.969,7.344 1.535,0 2.949,4.375 2.949,4.375 l 2.012,4.875 4.367,0 0.469,9.285 c 0,0 2.5,1.98 2.5,3.906 0,1.984 0,6.875 0,6.875 l 0,8.809 c -6.379,10.285 -22.473,14.179 -27.902,13.64 -5.41,-0.465 -18.574,-5.777 -23.985,-11.148 -5.332,-5.395 -17.148,-36.242 -17.148,-36.242 0,0 -4.832,-8.555 -8.32,-8.985 -2.332,-0.39 -7.52,-10.332 -11.922,-18.172 l 0,-195.05 160.468,0 0,7.961 c 0,0 5.809,1.003 8.504,1.425 2.239,0.289 9.356,0.196 10.235,2.567 0.988,2.558 0.519,19.55 0.519,19.55 0,0 11.707,3.379 10.262,7.801 -1.504,4.387 0.5,42.102 0,49.426"
         id="path30"
         style="fill:#a7a5a6;fill-opacity:1;fill-rule:nonzero;stroke:none" /><path
         d="m 197.688,649.258 c -2.915,3.879 -16.536,11.687 -16.055,12.148 0.508,0.481 -1.891,6.328 -4.848,8.235 -2.523,1.687 -5.051,13.308 -5.633,16.375 0.153,0.117 0.325,0.351 0.368,0.82 0.535,4.394 0.449,7.891 0,10.742 -0.141,1.027 -0.329,2.031 -0.5,3.164 -1.02,4.485 -3.594,6.653 -5.817,7.715 -1.828,1.094 -3.426,1.105 -3.426,1.105 l -0.179,-0.109 c -0.188,0 -0.352,0 -0.352,0 0,0 -0.137,-0.215 -0.289,-0.422 l -0.645,-0.445 c 0,0 0,-0.051 0.071,-0.129 l -0.071,0 c -0.308,0.645 -0.449,0.996 -0.449,0.996 0,0 -0.687,0.676 -1.883,1.621 -0.085,0.02 -0.085,0.02 -0.109,0.117 -2.851,2.09 -8.453,5.633 -15.113,5.965 -0.215,0 -0.418,0.09 -0.649,0.09 -0.039,0 -0.121,0 -0.23,0 -1.684,0.031 -3.356,-0.359 -5.004,-0.957 -7.848,-2.559 -13.676,-9.07 -17.32,-13.105 -4.36,-4.864 1.91,-18.543 1.91,-18.543 l 0.98,-13.059 5.352,1.492 c 0,0 5.293,-9.234 8.254,-10.719 2.929,-1.41 9.179,2.469 9.179,2.469 l 1.532,-8.23 c 0,0 -6.367,-2.492 -10.262,-3.457 -3.883,-0.981 -18.906,-19.883 -18.906,-19.883 l 2.433,-2.91 -1.965,-7.297 c 0,0 -1.917,0.957 -4.871,2.922 -2.879,1.992 -10.129,8.242 -10.129,8.242 l -5.8511,6.824 c 0,0 -8.2968,8.223 -10.164,8.723 -2.0117,0.457 -3.9024,3.875 -6.375,4.851 -2.3946,0.957 -2.3946,-2.453 -2.3946,-2.453 l 3.3829,-4.84 -5.8047,1.493 c 0,0 -1.9571,3.347 -3.4375,3.347 -1.4024,0 -2.3868,-3.804 -2.3868,-3.804 0,0 4.3399,-6.86 5.8243,-8.801 1.4375,-1.942 4.3633,1.015 5.8047,-1.942 1.4843,-2.89 11.6562,-6.289 11.6562,-6.289 0,0 0.0742,-0.148 0.1836,-0.441 l 12.434,-23.84 -17.4848,1.496 -4.3437,2.863 -15.5703,0.536 c 0,0 -6.9883,-0.059 -11.1993,-0.957 -0.7304,-0.165 -1.375,-0.364 -1.8515,-0.536 -3.418,-1.437 -11.6602,-7.296 -13.6328,-9.211 -1.9219,-1.972 1.0195,-9.191 0,-10.695 -0.9922,-1.433 1.9726,-6.758 -0.4727,-8.238 -2.3984,-1.445 -8.7617,-30.156 -9.2383,-33.969 -0.4609,-3.875 -1.4101,-18.445 -1.4101,-23.328 0,-4.824 -4.3633,-15.547 -4.3633,-15.547 l -6.3281,-6.765 2.9218,-1.477 c 0,0 -3.8632,-10.477 -4.8984,-14.559 -0.6641,-2.648 -8.59375,-5.976 -11.11719,-7.226 -2.55469,-1.352 -7.746091,-8.449 -6.843748,-10.254 1.144528,-2.219 8.242188,-0.449 8.242188,-0.449 0,0 19.00395,8.867 18.50005,5.332 -1.2032,-7.817 18.2304,-21.321 18.2304,-21.321 l 0,-5.175 162.1528,0 0,184.336 c -3.454,6.718 -7.872,15.109 -9.539,17.363"
         id="path32"
         style="fill:#a7a5a6;fill-opacity:1;fill-rule:nonzero;stroke:none" /><path
         d="m 447.992,450.801 12.0703,0 0,343.398 -12.0703,0 0,-343.398 z"
         id="path34"
         style="fill:#918f90;fill-opacity:1;fill-rule:nonzero;stroke:none" /><path
         d="m 192.828,450.801 12.5703,0 0,343.398 -12.5703,0 0,-343.398 z"
         id="path36"
         style="fill:#918f90;fill-opacity:1;fill-rule:nonzero;stroke:none" /><path
         d="m 326.699,898.633 c -61.547,0 -138.047,-34.149 -153.148,-78.203 l 15.094,-17.782 274.144,0 16.387,19.383 c -15.938,43.125 -92.199,76.602 -152.477,76.602"
         id="path38"
         style="fill:#918f90;fill-opacity:1;fill-rule:nonzero;stroke:none" /><path
         d="m 460.66,818.711 c -7.324,34.465 -81.035,68.301 -133.535,68.301 -53.59,0 -125.902,-29.258 -133.551,-68.367 l -0.957,-4.844 269.078,0 -1.035,4.91"
         id="path40"
         style="fill:#4f4c4c;fill-opacity:1;fill-rule:nonzero;stroke:none" /><path
         d="m 460.062,452.156 -12.07,0 0,342.043 12.07,0 0,-342.043 z m -20.574,0 -225.621,0 0.047,341.582 225.582,0 -0.008,-341.582 z m -234.09,0 -12.57,0 0,342.043 12.57,0 0,-342.043 z M 173.551,820.43 c 15.109,44.054 91.609,78.183 153.148,78.183 60.297,0 136.539,-33.437 152.477,-76.562 l -16.387,-19.403 -274.156,0 -15.082,17.782 z m 444.871,-368.274 -149.883,0 0,260.239 9.641,9.019 c 0,0 2.89,4.563 -1.27,5.988 -3.965,1.297 3.426,-1.336 5.176,5.918 1.59,7.266 -6.621,9.121 -8.82,4.688 -0.555,-0.985 -3.094,-0.242 0.734,9.453 6.336,15.723 25.898,38.898 8.086,49.375 -3.02,1.769 -9.434,2.168 -13.547,-0.586 l 0,0.156 20.207,23.84 -0.82,2.266 c -15.754,47.429 -96.496,84.578 -161.227,84.578 -66.039,0 -147.043,-37.969 -161.926,-86.336 l -0.691,-2.238 19.066,-22.422 c -4.054,2.707 -9.597,2.273 -12.187,0.742 -17.875,-10.477 1.719,-33.652 7.953,-49.375 3.856,-9.695 1.363,-10.438 0.844,-9.453 -2.215,4.433 -10.516,2.578 -8.797,-4.688 1.719,-7.254 9.078,-4.621 5.113,-5.918 -4.14,-1.425 -1.269,-5.988 -1.269,-5.988 l 9.566,-8.98 0,-260.278 -149.5312,0 c -4.5312,0 -8.1953,-4.722 -8.1953,-9.234 l 599.9725,0 c 0,4.512 -3.691,9.234 -8.195,9.234"
         id="path42"
         style="fill:#4f4c4c;fill-opacity:1;fill-rule:nonzero;stroke:none" /><path
         d="m 442.309,822.051 -230.571,0 c 9.77,30.371 66.961,59.894 115.367,59.894 47.665,0 104.735,-30.949 115.204,-59.894"
         id="path44"
         style="fill:#a7a5a6;fill-opacity:1;fill-rule:nonzero;stroke:none" /><path
         d="m 249.605,773.289 154.004,0 0,-300.125 -154.004,0 0,300.125 z m -35.738,-321.133 225.621,0 0,341.582 -225.621,0 0,-341.582"
         id="path46"
         style="fill:#a7a5a6;fill-opacity:1;fill-rule:nonzero;stroke:none" /><path
         d="m 416.781,773.289 -180.336,0 0,-300.125 180.453,0 0,300.125 -0.117,0"
         id="path48"
         style="fill:#4f4c4c;fill-opacity:1;fill-rule:nonzero;stroke:none" /><path
         d="m 245.328,760 46.75,-21.68 0,-75.117 -46.75,14.336 0,82.461"
         id="path50"
         style="fill:#ffffff;fill-opacity:1;fill-rule:nonzero;stroke:none" /><path
         d="m 245.328,669.617 46.75,-14.273 0,-69.485 -46.75,-14.297 0,98.055"
         id="path52"
         style="fill:#ffffff;fill-opacity:1;fill-rule:nonzero;stroke:none" /><path
         d="m 245.328,563.652 46.75,14.317 0,-69.785 -46.75,-20.481 0,75.949"
         id="path54"
         style="fill:#ffffff;fill-opacity:1;fill-rule:nonzero;stroke:none" /><path
         d="m 361.105,738.32 46.75,21.68 0,-82.676 -46.75,-14.328 0,75.324"
         id="path56"
         style="fill:#ffffff;fill-opacity:1;fill-rule:nonzero;stroke:none" /><path
         d="m 361.105,655.129 46.75,14.297 0,-98.332 -46.75,14.265 0,69.77"
         id="path58"
         style="fill:#ffffff;fill-opacity:1;fill-rule:nonzero;stroke:none" /><path
         d="m 361.105,577.449 46.75,-14.273 0,-75.473 -46.75,20.481 0,69.265"
         id="path60"
         style="fill:#ffffff;fill-opacity:1;fill-rule:nonzero;stroke:none" /><path
         d="m 286.812,860.781 c 0,-9.187 0.004,-13.769 0.004,-22.957 -0.004,-0.441 -0.004,-0.683 -0.035,-1.144 0.129,-0.594 0.157,-0.899 0.266,-1.504 0.508,-1.367 1.953,-2.09 4.359,-2.188 0.672,-0.008 1.055,-0.273 1.055,-0.691 0,-0.625 -0.723,-0.957 -2.242,-0.957 -0.317,0 -1.442,0.066 -3.301,0.203 -1,0.098 -2.352,0.117 -4.074,0.117 -1.746,-0.019 -3.25,-0.164 -4.477,-0.301 -0.48,-0.078 -0.832,-0.097 -1.058,-0.097 -0.457,0 -0.664,0.222 -0.664,0.672 0,0.351 0.207,0.578 0.675,0.656 1.774,0.301 2.95,0.742 3.465,1.308 0.543,0.516 0.762,1.563 0.762,3.086 -0.004,0.411 -0.004,0.606 -0.008,1.004 0,8 0,12.032 -0.012,20.032 0,1.855 -0.687,2.683 -2.113,2.539 -0.531,-0.09 -1.047,-0.274 -1.465,-0.481 -0.222,-0.137 -0.383,-0.223 -0.629,-0.398 -0.195,-0.11 -0.367,-0.129 -0.508,-0.137 -0.425,-0.078 -0.695,0.105 -0.695,0.527 0,0.41 0.227,0.75 0.695,1.043 0.399,0.285 1.254,0.684 2.583,1.125 2.453,0.899 4.257,1.844 5.289,3.016 0.453,0.469 0.722,0.754 1.218,1.269 0.157,0.207 0.422,0.325 0.715,0.372 0.321,0.019 0.496,-0.282 0.496,-0.985 0,-0.207 -0.035,-0.519 -0.051,-1.027 -0.113,-1.004 -0.124,-1.465 -0.203,-2.469 -0.043,-0.469 -0.047,-1.016 -0.047,-1.633"
         id="path62"
         style="fill:#4f4c4c;fill-opacity:1;fill-rule:nonzero;stroke:none" /><path
         d="m 313.594,862.668 c -2.731,-0.117 -4.074,-0.148 -6.801,-0.273 -0.93,-0.04 -1.371,-0.051 -2.289,-0.071 -1.043,-0.293 -1.606,-0.398 -2.633,-0.711 -1.129,-0.617 -1.828,-1.738 -2.027,-3.293 -0.11,-0.828 -0.336,-1.316 -0.703,-1.328 -0.473,-0.066 -0.774,0.391 -0.774,1.34 0,1.551 0.262,3.27 0.758,5.047 0.289,0.898 0.422,1.328 0.703,2.199 0.074,0.43 0.09,0.645 0.188,1.063 0.027,0.468 0.351,0.714 0.914,0.773 0.144,0 0.511,0.027 1.039,0.008 0.504,-0.008 1.547,0.031 3.148,0.117 4.199,0.293 6.324,0.402 10.508,0.527 1.063,0.039 1.738,-0.046 2.004,-0.254 0.277,-0.203 0.402,-0.781 0.402,-1.628 0,-2.305 -0.812,-5.559 -2.386,-9.7 -0.981,-2.488 -1.442,-3.73 -2.375,-6.152 -2.407,-6.277 -3.579,-10.965 -3.579,-14.141 0.012,-1.765 0.133,-3.171 0.371,-4.218 0.153,-0.496 0.18,-0.789 0.309,-1.317 0.051,-0.09 0.051,-0.195 0.051,-0.324 0,-0.301 -0.281,-0.516 -0.781,-0.633 -0.114,-0.019 -0.243,-0.09 -0.461,-0.156 -1.387,-0.449 -2.426,-0.734 -3.141,-0.734 -1.012,0 -1.648,0.285 -2,0.734 -0.348,0.496 -0.523,1.445 -0.527,2.879 0,4.355 1.383,8.762 4.179,13.34 1.039,1.769 1.618,2.676 2.68,4.472 1.223,2.004 2.332,4.219 3.367,6.692 1.071,2.422 1.598,4.07 1.598,4.883 0,0.605 -0.586,0.898 -1.742,0.859"
         id="path64"
         style="fill:#4f4c4c;fill-opacity:1;fill-rule:nonzero;stroke:none" /><path
         d="m 335.652,867.09 c -1.597,0.019 -2.847,-0.672 -3.843,-2.149 -0.954,-1.492 -1.461,-3.425 -1.461,-5.761 0,-3.368 0.652,-6.082 1.964,-8.203 1.297,-2.137 2.961,-3.184 5.024,-3.223 1.684,-0.008 3.07,0.664 4.191,2.101 1.133,1.395 1.731,3.153 1.731,5.274 0,3.125 -0.758,5.879 -2.278,8.289 -1.539,2.383 -3.335,3.613 -5.328,3.672 z m 1.399,1.75 c 3.433,-0.09 6.172,-1.641 8.336,-4.543 2.175,-2.899 3.269,-6.473 3.269,-10.84 0,-5.371 -1.703,-10.137 -5.105,-14.355 -3.363,-4.247 -7.582,-6.914 -12.688,-7.93 -0.828,-0.215 -1.211,-0.274 -2.039,-0.43 -0.215,-0.086 -0.41,-0.086 -0.609,-0.086 -0.438,0 -0.641,0.293 -0.621,0.84 0.004,0.293 0.097,0.477 0.222,0.574 0.098,0.078 0.539,0.196 1.348,0.383 2.441,0.625 4.844,2.051 7.129,4.227 2.324,2.218 3.875,4.504 4.613,6.945 0.207,0.645 0.309,0.965 0.516,1.602 0.195,0.515 0.281,0.945 0.281,1.269 0,0.586 -0.223,0.867 -0.598,0.84 -0.144,-0.02 -0.406,-0.148 -0.64,-0.324 -0.91,-0.692 -2.063,-1.309 -3.375,-1.785 -1.332,-0.5 -2.434,-0.774 -3.324,-0.762 -2.399,0 -4.407,1.074 -6.039,3.164 -1.633,2.117 -2.45,4.687 -2.45,7.754 0,3.984 1.102,7.273 3.332,9.805 2.196,2.507 5.012,3.769 8.442,3.652"
         id="path66"
         style="fill:#4f4c4c;fill-opacity:1;fill-rule:nonzero;stroke:none" /><path
         d="m 366.793,846.77 c 0,1.816 0,2.761 0,4.628 -0.012,1.211 -0.012,1.805 -0.082,3.036 0.07,1.066 0.07,1.652 0.086,2.714 -0.004,0.286 -0.004,0.442 -0.016,0.704 0,0.304 -0.097,0.48 -0.293,0.488 -0.082,0 -0.32,-0.203 -0.691,-0.692 -0.363,-0.429 -0.567,-0.664 -0.859,-1.125 -1.168,-1.425 -1.747,-2.136 -2.797,-3.593 -1.161,-1.426 -2.446,-3.301 -3.895,-5.633 -0.242,-0.41 -0.527,-0.703 -0.605,-0.899 -0.207,-0.246 -0.262,-0.527 -0.262,-0.695 0.008,-0.262 0.301,-0.457 1.016,-0.476 0.281,0 0.472,-0.012 0.835,-0.059 2.665,-0.109 3.958,-0.195 6.625,-0.293 0.61,-0.059 0.942,0.352 0.942,1.23 0,0.282 0,0.372 -0.004,0.665 z m 5.301,-8.45 c -0.008,-3.3 -0.008,-4.988 -0.008,-8.289 -0.09,-0.617 -0.543,-0.91 -1.301,-0.91 -0.711,-0.125 -1.074,-0.176 -1.742,-0.293 -0.559,-0.058 -1.016,-0.156 -1.387,-0.301 -0.25,-0.05 -0.437,-0.136 -0.644,-0.136 -0.387,-0.032 -0.61,0.136 -0.61,0.625 0,0.203 0.02,0.437 0.059,0.82 0.211,0.789 0.32,1.707 0.32,2.762 0,2.355 0,3.574 0,5.91 0.012,0.301 0.016,0.449 0.016,0.742 -0.117,0.293 -0.156,0.43 -0.332,0.711 -0.102,0.195 -0.653,0.285 -1.488,0.305 -4.043,0.156 -6.11,0.261 -10.196,0.293 -0.773,0.019 -1.261,0.125 -1.488,0.293 -0.188,0.136 -0.367,0.437 -0.367,0.925 0,0.899 2.058,4.465 6.172,10.246 3.058,4.356 5.851,7.918 8.3,10.723 2.43,2.832 3.887,4.149 4.34,4.082 0.203,-0.039 0.387,-0.254 0.387,-0.734 -0.008,-0.887 -0.008,-1.328 -0.008,-2.227 -0.008,-0.937 -0.008,-1.426 -0.023,-2.363 0,-6.238 0,-9.383 0,-15.645 0.023,-0.293 0.031,-0.418 0.058,-0.73 0.176,-0.254 0.582,-0.469 1.383,-0.481 1.274,-0.086 2.129,0.411 2.512,1.524 0.051,0.305 0.258,0.43 0.551,0.43 0.41,-0.02 0.644,-0.215 0.644,-0.625 0,-0.176 -0.012,-0.321 -0.023,-0.497 -0.11,-0.351 -0.211,-1.046 -0.309,-2.179 -0.07,-1.524 -0.293,-2.508 -0.644,-2.918 -0.293,-0.422 -1.071,-0.567 -2.243,-0.559 -0.285,0.02 -0.453,0.02 -0.796,0.098 -0.5,0 -0.86,-0.098 -1.036,-0.262 -0.066,-0.137 -0.097,-0.605 -0.097,-1.34"
         id="path68"
         style="fill:#4f4c4c;fill-opacity:1;fill-rule:nonzero;stroke:none" /><path
         d="m 255.676,764.512 44.453,-21.043 0,-241.926 -44.453,-19.719 141.613,0 -44.379,19.719 0,241.926 44.379,21.043 -141.613,0"
         id="path70"
         style="fill:#e9e9e9;fill-opacity:1;fill-rule:nonzero;stroke:none" /><path
         d="m 185.277,773.289 27.6602,0 0,20.9102 -27.6602,0 0,-20.9102 z"
         id="path72"
         style="fill:#bdbcbc;fill-opacity:1;fill-rule:nonzero;stroke:none" /><path
         d="m 440.191,773.289 27.6641,0 0,20.9102 -27.6641,0 0,-20.9102 z"
         id="path74"
         style="fill:#bdbcbc;fill-opacity:1;fill-rule:nonzero;stroke:none" /><path
         d="m 185.277,447.559 27.6602,0 0,20.8984 -27.6602,0 0,-20.8984 z"
         id="path76"
         style="fill:#a7a5a6;fill-opacity:1;fill-rule:nonzero;stroke:none" /><path
         d="m 440.191,447.559 27.6641,0 0,20.8984 -27.6641,0 0,-20.8984 z"
         id="path78"
         style="fill:#a7a5a6;fill-opacity:1;fill-rule:nonzero;stroke:none" /><path
         d="m 190.039,711.594 18.1484,0 0,61.6953 -18.1484,0 0,-61.6953 z"
         id="path80"
         style="fill:#a7a5a6;fill-opacity:1;fill-rule:nonzero;stroke:none" /><path
         d="m 444.945,711.594 18.1562,0 0,61.6953 -18.1562,0 0,-61.6953 z"
         id="path82"
         style="fill:#a7a5a6;fill-opacity:1;fill-rule:nonzero;stroke:none" /><path
         d="m 188.926,776.934 20.371,0 0,13.632 -20.371,0 0,-13.632 z m 27.668,-7.293 -34.957,0 0,28.211 34.957,0 0,-28.211"
         id="path84"
         style="fill:#4f4c4c;fill-opacity:1;fill-rule:nonzero;stroke:none" /><path
         d="m 443.832,776.934 20.391,0 0,13.632 -20.391,0 0,-13.632 z m 27.668,-7.293 -34.953,0 0,28.211 34.953,0 0,-28.211"
         id="path86"
         style="fill:#4f4c4c;fill-opacity:1;fill-rule:nonzero;stroke:none" /><path
         d="m 188.926,451.191 20.371,0 0,13.633 -20.371,0 0,-13.633 z m 27.668,-7.304 -34.957,0 0,28.222 34.957,0 0,-28.222"
         id="path88"
         style="fill:#4f4c4c;fill-opacity:1;fill-rule:nonzero;stroke:none" /><path
         d="m 443.832,451.191 20.391,0 0,13.633 -20.391,0 0,-13.633 z m 27.668,-7.304 -34.953,0 0,28.222 34.953,0 0,-28.222"
         id="path90"
         style="fill:#4f4c4c;fill-opacity:1;fill-rule:nonzero;stroke:none" /><path
         d="m 193.676,715.234 10.871,0 0,54.407 -10.871,0 0,-54.407 z m 18.156,-7.273 -25.441,0 0,68.973 25.441,0 0,-68.973"
         id="path92"
         style="fill:#4f4c4c;fill-opacity:1;fill-rule:nonzero;stroke:none" /><path
         d="m 448.598,715.234 10.859,0 0,54.407 -10.859,0 0,-54.407 z m 18.144,-7.273 -25.43,0 0,68.973 25.43,0 0,-68.973"
         id="path94"
         style="fill:#4f4c4c;fill-opacity:1;fill-rule:nonzero;stroke:none" /><path
         d="m 2006.33,527.883 -158.21,158.269 0.6,0.618 158.21,-158.274 -0.6,-0.613"
         id="path96"
         style="fill:#373a90;fill-opacity:1;fill-rule:nonzero;stroke:none" /><path
         d="m 1848.49,518.391 0,-0.871 159.27,0.183 0,0.852 -159.27,-0.164"
         id="path98"
         style="fill:#373a90;fill-opacity:1;fill-rule:nonzero;stroke:none" /><g
         id="g100"><g
           clip-path="url(#clipPath104)"
           id="g102"><path
             d="m 1918.03,383.406 c -2.77,-9.324 -4.28,-19.207 -4.28,-29.453 0,-1.363 0.05,-2.742 0.1,-4.109 l 1.69,0 c -0.05,1.367 -0.11,2.746 -0.11,4.109 0,9.797 1.41,19.301 4.03,28.254"
             id="path108"
             style="fill:#373a90;fill-opacity:1;fill-rule:nonzero;stroke:none" /><path
             d="m 2112.8,382.195 c 2.6,-8.941 4,-18.445 4,-28.242 0,-1.363 -0.06,-2.742 -0.11,-4.109 l 1.7,0 c 0.06,1.367 0.11,2.746 0.11,4.109 0,9.926 -1.41,19.531 -4.04,28.598"
             id="path110"
             style="fill:#373a90;fill-opacity:1;fill-rule:nonzero;stroke:none" /><path
             d="m 1848.72,349.609 -0.6,0.594 162.63,162.668 0.61,-0.637 -162.64,-162.625"
             id="path112"
             style="fill:#373a90;fill-opacity:1;fill-rule:nonzero;stroke:none" /><path
             d="m 2183.53,350.625 -149.56,149.609 0.61,0.594 149.56,-149.598 -0.61,-0.605"
             id="path114"
             style="fill:#373a90;fill-opacity:1;fill-rule:nonzero;stroke:none" /><path
             d="m 2184.92,517.52 -159.97,0.183 0,0.852 159.97,-0.164 0,-0.871"
             id="path116"
             style="fill:#373a90;fill-opacity:1;fill-rule:nonzero;stroke:none" /><path
             d="m 2016.04,349.844 0.8711,0 0,104.812 -0.8711,0 0,-104.812 z"
             id="path118"
             style="fill:#373a90;fill-opacity:1;fill-rule:nonzero;stroke:none" /><path
             d="m 1850.25,351.621 332.88,0 0,332.871 -332.88,0 0,-332.871 z m 335.81,-2.93 -338.73,0 0,338.704 338.73,0 0,-338.704"
             id="path120"
             style="fill:#373a90;fill-opacity:1;fill-rule:nonzero;stroke:none" /><path
             d="m 2016.78,682.98 c -53.53,0 -103.9,-26.054 -134.76,-69.718 -25.41,-35.946 -35.31,-79.657 -27.85,-123.035 7.46,-43.391 31.37,-81.282 67.32,-106.692 27.99,-19.797 60.85,-30.246 95,-30.246 l 0.01,0 c 53.51,0 103.89,26.047 134.75,69.707 25.4,35.957 35.29,79.668 27.84,123.051 -7.45,43.387 -31.37,81.277 -67.34,106.695 -27.99,19.77 -60.82,30.238 -94.97,30.238 m -0.28,-332.609 -0.01,0 c -34.78,0 -68.2,10.645 -96.68,30.762 -36.58,25.871 -60.92,64.433 -68.52,108.601 -7.58,44.164 2.47,88.633 28.33,125.227 31.42,44.426 82.67,70.945 137.16,70.945 34.74,0 68.18,-10.664 96.67,-30.758 36.6,-25.871 60.93,-64.433 68.51,-108.605 7.59,-44.16 -2.48,-88.652 -28.33,-125.234 -31.4,-44.422 -82.67,-70.938 -137.13,-70.938"
             id="path122"
             style="fill:#373a90;fill-opacity:1;fill-rule:nonzero;stroke:none" /><path
             d="m 2099.81,599.797 c 25.53,0 48.37,-11.801 63.36,-30.18 l 2.17,0 c -15.29,19.399 -38.97,31.875 -65.53,31.875 -19.46,0 -37.36,-6.695 -51.56,-17.906 l 0.53,-1.738 c 14.02,11.199 31.76,17.949 51.03,17.949"
             id="path124"
             style="fill:#373a90;fill-opacity:1;fill-rule:nonzero;stroke:none" /><path
             d="m 2096.75,434.727 c 1.02,-0.032 2.05,-0.079 3.06,-0.079 46,0 83.44,37.43 83.44,83.418 0,17.707 -5.58,34.122 -15,47.649 l -1.38,-1.008 c 9.22,-13.242 14.68,-29.297 14.68,-46.641 0,-45.058 -36.68,-81.718 -81.74,-81.718 -1.22,0 -2.42,0.039 -3.62,0.09"
             id="path126"
             style="fill:#373a90;fill-opacity:1;fill-rule:nonzero;stroke:none" /><path
             d="m 2052.63,569.617 -3.83,12.231 c -18.7,-14.993 -30.72,-38.008 -30.72,-63.762 0,-43.867 34.73,-79.734 78.11,-81.648 l -20.62,61.882 91.3,66.387 c -1.19,1.672 -2.41,3.328 -3.7,4.91 l -110.54,0"
             id="path128"
             style="fill:#373a90;fill-opacity:1;fill-rule:nonzero;stroke:none" /><path
             d="m 2173.63,569.617 -8.29,0 c 1.02,-1.265 1.97,-2.566 2.91,-3.902 l 5.38,3.902"
             id="path130"
             style="fill:#373a90;fill-opacity:1;fill-rule:nonzero;stroke:none" /><path
             d="m 2166.87,564.707 1.38,1.008 c -0.94,1.336 -1.89,2.637 -2.91,3.902 l -2.17,0 c 1.29,-1.582 2.51,-3.238 3.7,-4.91"
             id="path132"
             style="fill:#373a90;fill-opacity:1;fill-rule:nonzero;stroke:none" /><path
             d="m 2096.72,434.805 c -0.15,0.515 -0.32,1.007 -0.49,1.496 l 0.49,-1.496"
             id="path134"
             style="fill:#ffffff;fill-opacity:1;fill-rule:nonzero;stroke:none" /><path
             d="m 2110.33,394.016 -13.58,40.711 c -8.29,0.293 -16.28,1.804 -23.81,4.382 16.47,-11.023 29.55,-26.675 37.39,-45.093"
             id="path136"
             style="fill:#373a90;fill-opacity:1;fill-rule:nonzero;stroke:none" /><path
             d="m 2016.12,456.328 c 12.51,0 24.5,-2.246 35.58,-6.367 -21.35,15.109 -35.32,40.019 -35.32,68.125 0,26.543 12.5,50.226 31.87,65.519 l -31.76,100.594 -36.68,-114.582 -119.68,0 96.77,-70.797 -34.87,-104.55 c 15.67,36.503 51.86,62.058 94.09,62.058"
             id="path138"
             style="fill:#373a90;fill-opacity:1;fill-rule:nonzero;stroke:none" /><path
             d="m 2113.47,384.648 -1.15,-0.847 c -12.72,41.031 -50.99,70.855 -96.2,70.855 -44.97,0 -83.05,-29.519 -95.97,-70.222 l -1.1,0.878 -0.82,-2.402 98.26,71.707 97.78,-72.41 -0.8,2.441"
             id="path140"
             style="fill:#373a90;fill-opacity:1;fill-rule:nonzero;stroke:none" /><path
             d="m 1918.75,385.559 0.3,-0.247 2.98,8.958 c -1.2,-2.832 -2.34,-5.743 -3.28,-8.711"
             id="path142"
             style="fill:#373a90;fill-opacity:1;fill-rule:nonzero;stroke:none" /><path
             d="m 2113.74,384.863 c -0.99,3.117 -2.13,6.153 -3.41,9.153 l 3.14,-9.368 0.27,0.215"
             id="path144"
             style="fill:#373a90;fill-opacity:1;fill-rule:nonzero;stroke:none" /><path
             d="m 2029.4,530.312 -0.59,0.594 156.05,156.067 0.6,-0.625 -156.06,-156.036"
             id="path146"
             style="fill:#373a90;fill-opacity:1;fill-rule:nonzero;stroke:none" /></g></g><g
         transform="scale(10,10)"
         id="g148"><text
           transform="matrix(0.949641,0,0,-1,107.97,23.457)"
           id="text150"><tspan
             x="0 4.4807172 8.5747795 12.683649 16.776888 21.869274 26.341764 31.169662 41.756718 45.306568 50.678253 56.150097 58.163597 62.810295 66.903122 71.374382 75.484695 77.498192 81.641411 91.280731 94.787399 99.210121 104.30251 108.77501 110.78811"
             y="0"
             id="tspan152"
             style="font-size:8.25242043px;font-variant:normal;font-weight:normal;writing-mode:lr-tb;fill:#373a90;fill-opacity:1;fill-rule:nonzero;stroke:none;font-family:CeraPRO;-inkscape-font-specification:CeraPRO-Regular">RESEARCH UNIVERSITY PARIS</tspan></text>
</g><g
         id="g154"><g
           clip-path="url(#clipPath158)"
           id="g156"><path
             d="m 1125.63,650.488 0,-124.902 76,0 c 43.47,0 65.96,26.125 65.96,62.449 0,35.844 -22.49,62.453 -65.96,62.453 l -76,0 z m 182.47,-61.933 c 0,-57.344 -40.51,-98.789 -105.48,-98.789 l -76.99,0 0,-141.321 -38.99,0 0,337.895 115.98,0 c 64.97,0 105.48,-40.957 105.48,-97.785"
             id="path162"
             style="fill:#373a90;fill-opacity:1;fill-rule:nonzero;stroke:none" /><path
             d="m 1550.57,634.629 -28.49,-22.02 c -17.51,27.137 -45.5,42.489 -75.49,42.489 -30.5,0 -58.49,-15.86 -58.49,-49.121 0,-30.735 22.99,-42 52.98,-56.844 l 36.5,-17.922 c 48,-23.547 77,-48.621 77,-94.18 0,-56.836 -45.51,-94.211 -106.5,-94.211 -52.5,0 -95.99,28.164 -121.47,72.715 l 28.98,21.992 c 20,-31.207 49.5,-57.847 91.99,-57.847 38.99,0 66.5,22.011 66.5,56.316 0,31.231 -22.51,43.508 -54.99,59.375 l -37.01,17.93 c -38.49,18.933 -74.49,42.976 -74.49,90.605 0,53.758 46,88.047 99.49,88.047 45,0 83,-24.043 103.49,-57.324"
             id="path164"
             style="fill:#373a90;fill-opacity:1;fill-rule:nonzero;stroke:none" /><path
             d="m 1642.85,384.285 156.47,0 0,-35.84 -195.48,0 0,337.895 39.01,0 0,-302.055"
             id="path166"
             style="fill:#373a90;fill-opacity:1;fill-rule:nonzero;stroke:none" /></g></g></g></g></svg>