<?xml version="1.0" encoding="utf-8"?>
<!-- Generator: Adobe Illustrator 14.0.0, SVG Export Plug-In . SVG Version: 6.00 Build 43363)  -->
<!DOCTYPE svg PUBLIC "-//W3C//DTD SVG 1.1//EN" "http://www.w3.org/Graphics/SVG/1.1/DTD/svg11.dtd">
<svg version="1.1"
	 id="Calque_1" xmlns:dc="http://purl.org/dc/elements/1.1/" xmlns:cc="http://creativecommons.org/ns#" xmlns:rdf="http://www.w3.org/1999/02/22-rdf-syntax-ns#" xmlns:sodipodi="http://sodipodi.sourceforge.net/DTD/sodipodi-0.dtd" xmlns:svg="http://www.w3.org/2000/svg" xmlns:inkscape="http://www.inkscape.org/namespaces/inkscape"
	 xmlns="http://www.w3.org/2000/svg" xmlns:xlink="http://www.w3.org/1999/xlink" x="0px" y="0px" width="214px" height="288px"
	 viewBox="0 0 214 288" enable-background="new 0 0 214 288" xml:space="preserve">
<g id="document" xmlns:dc="http://purl.org/dc/elements/1.1/" xmlns:cc="http://creativecommons.org/ns#" xmlns:rdf="http://www.w3.org/1999/02/22-rdf-syntax-ns#" xmlns:sodipodi="http://sodipodi.sourceforge.net/DTD/sodipodi-0.dtd" xmlns:svg="http://www.w3.org/2000/svg" xmlns:inkscape="http://www.inkscape.org/namespaces/inkscape" inkscape:export-xdpi="14.675159" inkscape:export-ydpi="14.675159" sodipodi:docname="document-symbol.svg" inkscape:version="0.48.3.1 r9886" inkscape:export-filename="/home/antonin/Programmation/OA/dissemin/papers/static/document-symbol.png">
	<g>
		
			<image overflow="visible" opacity="0.35" enable-background="new    " width="197" height="270" xlink:href="AFCBEF26.png"  transform="matrix(1 0 0 1 13 5)">
		</image>
		<g>
			<path fill="#FAFAFA" d="M194.4,50.195V239.59c0,11.047-8.953,20-20,20H48.686c-11.047,0-20-8.953-20-20V40.195
				c0-11.047,8.953-20,20-20H164.4L194.4,50.195z"/>
		</g>
	</g>
	<polygon fill="#CCCCCC" points="164.4,20.195 194.4,50.195 164.4,50.195 	"/>
	
		<sodipodi:namedview  id="base" inkscape:window-x="0" inkscape:window-width="798" inkscape:window-height="879" inkscape:window-y="19" inkscape:window-maximized="0" inkscape:pageopacity="0.0" inkscape:pageshadow="2" inkscape:document-units="px" inkscape:current-layer="g2989" inkscape:cx="324.56324" inkscape:cy="678.48422" pagecolor="#ffffff" showgrid="false" bordercolor="#666666" borderopacity="1.0" inkscape:zoom="1.4">
		</sodipodi:namedview>
	<path fill="#999999" d="M174.4,261.092H48.686c-11.855,0-20.5-9.645-20.5-21.5h1c0,10.201,9.299,18.5,19.5,18.5H174.4
		c10.201,0,19.5-8.299,19.5-18.5h1C194.9,251.447,186.258,261.092,174.4,261.092L174.4,261.092z"/>
	<path fill="#BFBFBF" d="M193.342,51.256l-29.561-29.561H48.686c-10.201,0-19.5,8.299-19.5,18.5h-1c0-11.855,8.645-21.5,20.5-21.5
		h116.336l29.439,31.438L193.342,51.256L193.342,51.256z"/>
</g>
<g id="open-access" display="none">
	<g display="inline">
		
			<image overflow="visible" opacity="0.25" enable-background="new    " width="91" height="125" xlink:href="AFCBEF20.png"  transform="matrix(1 0 0 1 106.999 136.0034)">
		</image>
		<g>
			<g>
				<path fill="none" stroke="#F68212" stroke-width="10" d="M128.966,176.272v-3.468c0.002-11.212,9.093-20.299,20.306-20.297
					c11.208,0.002,20.294,9.088,20.296,20.297v25.077"/>
				<circle fill="#FFFFFF" stroke="#F68212" stroke-width="10" cx="149.21" cy="212.427" r="24.849"/>
				<circle fill="#F68212" cx="149.307" cy="212.517" r="8.387"/>
			</g>
		</g>
	</g>
</g>
<g id="locked" display="none">
	
		<image display="inline" overflow="visible" opacity="0.25" enable-background="new    " width="97" height="114" xlink:href="AFCBEF2E.png"  transform="matrix(1 0 0 1 103.999 137.002)">
	</image>
	<g display="inline">
		<g>
			<g>
				<path fill="#3B0909" d="M182.691,220.234c0,6.627-5.371,12-12,12h-42.525c-6.627,0-12-5.373-12-12v-22.732
					c0-6.627,5.373-12,12-12h42.525c6.629,0,12,5.373,12,12V220.234z"/>
				<path fill="#3B0909" d="M177.992,202.439h-16v-24.693c-0.002-6.607-5.637-11.986-12.561-11.987c-0.002,0-0.002,0-0.004,0
					c-6.926,0-12.561,5.377-12.563,11.989v24.691h-16v-24.693c0.004-15.434,12.814-27.987,28.563-27.987c0.002,0,0.004,0,0.006,0
					c15.744,0.003,28.555,12.557,28.559,27.985V202.439L177.992,202.439z"/>
			</g>
		</g>
	</g>
</g>
<g id="open" display="none">
	
		<image display="inline" overflow="visible" opacity="0.25" width="97" height="124" xlink:href="AFCBEF2D.png"  transform="matrix(1 0 0 1 104 127)">
	</image>
	<g display="inline">
		<g>
			<g>
				<path fill="#B3B3B3" d="M182.691,220.234c0,6.627-5.371,12-12,12h-42.525c-6.627,0-12-5.373-12-12v-22.732
					c0-6.627,5.373-12,12-12h42.525c6.629,0,12,5.373,12,12V220.234z"/>
				<path fill="#B3B3B3" d="M151.318,195.586l13.506-20.67c3.616-5.535,1.841-13.118-3.959-16.908l-0.002-0.001
					c-5.797-3.786-13.457-2.366-17.072,3.165l-8.037,12.3l-13.394-8.752l8.038-12.302c8.44-12.915,26.033-16.416,39.216-7.807
					c0.001,0.002,0.001,0.002,0.003,0.003c13.183,8.613,17.043,26.132,8.602,39.053l-13.507,20.671L151.318,195.586L151.318,195.586
					z"/>
			</g>
		</g>
	</g>
</g>
<g id="texte-full">
	<line fill="none" stroke="#D4D4D4" stroke-width="6" x1="52.043" y1="110.502" x2="171.045" y2="110.502"/>
	<line fill="none" stroke="#D4D4D4" stroke-width="6" x1="52.043" y1="130.502" x2="171.045" y2="130.502"/>
	<line fill="none" stroke="#D4D4D4" stroke-width="6" x1="52.043" y1="150.502" x2="171.045" y2="150.502"/>
	<line fill="none" stroke="#D4D4D4" stroke-width="6" x1="52.043" y1="170.502" x2="171.045" y2="170.502"/>
	<line fill="none" stroke="#D4D4D4" stroke-width="6" x1="52.043" y1="190.502" x2="171.045" y2="190.502"/>
</g>
<g id="texte-part" display="none">
	<line display="inline" fill="none" stroke="#D4D4D4" stroke-width="6" x1="52.043" y1="110.502" x2="171.045" y2="110.502"/>
	<line display="inline" fill="none" stroke="#D4D4D4" stroke-width="6" x1="52.043" y1="130.502" x2="171.045" y2="130.502"/>
	<line display="inline" fill="none" stroke="#D4D4D4" stroke-width="6" x1="52.043" y1="150.502" x2="108.09" y2="150.502"/>
	<line display="inline" fill="none" stroke="#D4D4D4" stroke-width="6" x1="52.043" y1="170.502" x2="108.09" y2="170.502"/>
	<line display="inline" fill="none" stroke="#D4D4D4" stroke-width="6" x1="52.043" y1="190.502" x2="108.09" y2="190.502"/>
</g>
<g id="pdf">
	<g>
		<g>
			
				<image overflow="visible" opacity="0.25" enable-background="new    " width="149" height="83" xlink:href="AFCBEF39.png"  transform="matrix(1 0 0 1 5 25.001)">
			</image>
			<g>
				<path fill="#B70909" d="M135.432,74.199c0,8.312-4.811,15.049-10.744,15.049H28.244c-5.935,0-10.744-6.737-10.744-15.049V52.496
					c0-8.311,4.81-15.047,10.744-15.047h96.443c5.934,0,10.744,6.736,10.744,15.047V74.199z"/>
			</g>
		</g>
		<path fill="#A30808" d="M132.924,52.496h2.508c0-7.605-5.512-13.793-10.744-13.793H28.244c-5.232,0-10.744,6.188-10.744,13.793
			l0,0c0-8.988,4.129-16.301,10.744-16.301h96.443c6.617,0,10.744,7.313,10.744,16.301H132.924z"/>
		<path fill="#7A0606" d="M124.686,90.502H28.243c-6.616,0-10.745-7.313-10.745-16.303l0,0c0,7.606,5.512,13.795,10.745,13.795
			h96.442c5.234,0,10.746-6.188,10.746-13.795l0,0C135.432,83.188,131.305,90.502,124.686,90.502L124.686,90.502z"/>
		<text transform="matrix(1 0 0 1 41.7202 76.707)" fill="#FFFFFF" font-family="'OpenSans-Semibold'" font-size="37.6201">PDF</text>
	</g>
</g>
</svg>
