<?xml version="1.0" encoding="utf-8"?>
<!-- Generator: Adobe Illustrator 14.0.0, SVG Export Plug-In . SVG Version: 6.00 Build 43363)  -->
<!DOCTYPE svg PUBLIC "-//W3C//DTD SVG 1.1//EN" "http://www.w3.org/Graphics/SVG/1.1/DTD/svg11.dtd">
<svg version="1.1" xmlns:dc="http://purl.org/dc/elements/1.1/"
   xmlns:cc="http://creativecommons.org/ns#"
   xmlns:rdf="http://www.w3.org/1999/02/22-rdf-syntax-ns#"
   xmlns:svg="http://www.w3.org/2000/svg"
   xmlns="http://www.w3.org/2000/svg"
   xmlns:xlink="http://www.w3.org/1999/xlink"
   xmlns:sodipodi="http://sodipodi.sourceforge.net/DTD/sodipodi-0.dtd"
   xmlns:inkscape="http://www.inkscape.org/namespaces/inkscape" x="0px" y="0px" width="214px"
	 height="288px" viewBox="208.138 207.445 214 288" enable-background="new 208.138 207.445 214 288" xml:space="preserve">
<g id="document" inkscape:version="0.48.3.1 r9886" sodipodi:docname="document-symbol.svg" inkscape:export-ydpi="14.675159" inkscape:export-xdpi="14.675159" inkscape:export-filename="/home/antonin/Programmation/OA/dissemin/papers/static/document-symbol.png" xmlns:dc="http://purl.org/dc/elements/1.1/" xmlns:cc="http://creativecommons.org/ns#" xmlns:rdf="http://www.w3.org/1999/02/22-rdf-syntax-ns#" xmlns:svg="http://www.w3.org/2000/svg" xmlns:sodipodi="http://sodipodi.sourceforge.net/DTD/sodipodi-0.dtd" xmlns:inkscape="http://www.inkscape.org/namespaces/inkscape">
	<g>
		
			<image overflow="visible" opacity="0.19" width="197" height="270" xlink:href="AFCBEF26.png"  transform="matrix(1 0 0 1 220.6379 217.9451)">
		</image>
		<g>
			<path fill="#FAFAFA" d="M402.04,263.138v189.396c0,11.046-8.954,20-20,20H256.324c-11.046,0-20-8.954-20-20V253.138
				c0-11.046,8.954-20,20-20H372.04L402.04,263.138z"/>
		</g>
	</g>
	<polygon fill="#D9D9D9" points="372.04,233.138 402.04,263.138 372.04,263.138 	"/>
	
		<sodipodi:namedview  id="base" inkscape:window-y="19" inkscape:window-x="0" inkscape:window-height="879" inkscape:window-width="798" inkscape:current-layer="g2989" inkscape:document-units="px" inkscape:pageshadow="2" inkscape:pageopacity="0.0" inkscape:window-maximized="0" inkscape:zoom="1.4" borderopacity="1.0" bordercolor="#666666" showgrid="false" pagecolor="#ffffff" inkscape:cy="678.48422" inkscape:cx="324.56324">
		</sodipodi:namedview>
	<path fill="#C4C4C4" d="M382.04,474.035H256.324c-11.855,0-20.5-9.645-20.5-21.5h1c0,10.201,9.299,18.5,19.5,18.5H382.04
		c10.201,0,19.5-8.299,19.5-18.5h1C402.54,464.39,393.896,474.035,382.04,474.035L382.04,474.035z"/>
	<path fill="#D9D9D9" d="M400.98,264.199l-29.561-29.561H256.324c-10.201,0-19.5,8.299-19.5,18.5h-1c0-11.855,8.645-21.5,20.5-21.5
		h116.337l29.439,31.439L400.98,264.199L400.98,264.199z"/>
</g>
<g id="open-access" display="none">
	<g display="inline">
		
			<image overflow="visible" opacity="0.25" width="91" height="125" xlink:href="AFCBEF20.png"  transform="matrix(1 0 0 1 314.6379 348.9451)">
		</image>
		<g>
			<g>
				<g transform="matrix(0.09828756,0,0,0.09555575,287.19364,364.59616)">
					<path inkscape:connector-curvature="0" fill="none" stroke="#F68212" stroke-width="10" d="M502.479,266.939V231.21
						c0.02-115.54,93.704-209.194,209.246-209.174c115.513,0.02,209.147,93.664,209.167,209.174v258.418"/>
					
						<ellipse sodipodi:ry="256.08301" sodipodi:rx="256.08301" sodipodi:cy="680.729" sodipodi:cx="320.004" fill="#FFFFFF" stroke="#F68212" stroke-width="10" cx="711.09" cy="639.529" rx="25.17" ry="24.47">
					</ellipse>
				</g>
				
					<ellipse sodipodi:ry="86.428703" sodipodi:rx="86.428703" sodipodi:cy="681.659" sodipodi:cx="321.01001" fill="#F68212" cx="356.848" cy="426.004" rx="8.975" ry="8.724">
				</ellipse>
			</g>
		</g>
	</g>
</g>
<g id="locked">
	
		<image overflow="visible" opacity="0.25" width="97" height="114" xlink:href="AFCBEF2E.png"  transform="matrix(1 0 0 1 311.6379 349.9451)">
	</image>
	<g>
		<g>
			<g>
				<path fill="#3B0909" d="M390.331,433.177c0,6.627-5.373,12-12,12h-42.527c-6.627,0-12-5.373-12-12v-22.732
					c0-6.627,5.373-12,12-12h42.527c6.627,0,12,5.373,12,12V433.177z"/>
				<path fill="#3B0909" d="M385.63,415.383h-16V390.69c-0.001-6.608-5.636-11.987-12.56-11.988c-0.001,0-0.002,0-0.003,0
					c-6.927,0-12.562,5.377-12.563,11.989v24.692h-16V390.69c0.003-15.434,12.815-27.988,28.563-27.988c0.002,0,0.003,0,0.005,0
					c15.744,0.003,28.555,12.557,28.558,27.986V415.383L385.63,415.383z"/>
			</g>
		</g>
	</g>
</g>
<g id="open" display="none">
	
		<image display="inline" overflow="visible" opacity="0.25" width="221" height="270" xlink:href="AFCBEF38.png"  transform="matrix(1 0 0 1 223.638 220.9451)">
	</image>
	<g display="inline">
		<g>
			<g>
				<defs>
					<path id="SVGID_1_" d="M402.04,263.138v189.396c0,11.046-8.954,20-20,20H256.324c-11.046,0-20-8.954-20-20V253.138
						c0-11.046,8.954-20,20-20H372.04L402.04,263.138z"/>
				</defs>
				<clipPath id="SVGID_2_">
					<use xlink:href="#SVGID_1_"  overflow="visible"/>
				</clipPath>
			</g>
		</g>
		<g>
			<g>
				<defs>
					<path id="SVGID_3_" d="M402.04,263.138v189.396c0,11.046-8.954,20-20,20H256.324c-11.046,0-20-8.954-20-20V253.138
						c0-11.046,8.954-20,20-20H372.04L402.04,263.138z"/>
				</defs>
				<clipPath id="SVGID_4_">
					<use xlink:href="#SVGID_3_"  overflow="visible"/>
				</clipPath>
				<g clip-path="url(#SVGID_4_)">
					<path fill="#B3B3B3" d="M390.331,433.177c0,6.627-5.373,12-12,12h-42.527c-6.627,0-12-5.373-12-12v-22.732
						c0-6.627,5.373-12,12-12h42.527c6.627,0,12,5.373,12,12V433.177z"/>
					<path fill="#B3B3B3" d="M385.505,415.383h-16V390.69c0.003-15.434,12.815-27.988,28.563-27.988c0.002,0,0.003,0,0.005,0
						c15.744,0.003,28.555,12.557,28.558,27.986v4.695h-16v-4.693c-0.001-6.608-5.636-11.987-12.56-11.988c-0.001,0-0.002,0-0.003,0
						c-6.927,0-12.562,5.377-12.563,11.989V415.383L385.505,415.383z"/>
				</g>
			</g>
		</g>
		<g>
			<g>
				<defs>
					<path id="SVGID_5_" d="M402.04,263.138v189.396c0,11.046-8.954,20-20,20H256.324c-11.046,0-20-8.954-20-20V253.138
						c0-11.046,8.954-20,20-20H372.04L402.04,263.138z"/>
				</defs>
				<clipPath id="SVGID_6_">
					<use xlink:href="#SVGID_5_"  overflow="visible"/>
				</clipPath>
			</g>
		</g>
	</g>
</g>
<g id="texte-full" display="none">
	<line display="inline" fill="none" stroke="#D4D4D4" stroke-width="6" x1="259.682" y1="323.445" x2="378.683" y2="323.445"/>
	<line display="inline" fill="none" stroke="#D4D4D4" stroke-width="6" x1="259.682" y1="343.445" x2="378.683" y2="343.445"/>
	<line display="inline" fill="none" stroke="#D4D4D4" stroke-width="6" x1="259.682" y1="363.445" x2="378.683" y2="363.445"/>
	<line display="inline" fill="none" stroke="#D4D4D4" stroke-width="6" x1="259.682" y1="383.445" x2="378.683" y2="383.445"/>
	<line display="inline" fill="none" stroke="#D4D4D4" stroke-width="6" x1="259.682" y1="403.445" x2="378.683" y2="403.445"/>
</g>
<g id="texte-part">
	<line fill="none" stroke="#D4D4D4" stroke-width="6" x1="259.682" y1="323.445" x2="378.683" y2="323.445"/>
	<line fill="none" stroke="#D4D4D4" stroke-width="6" x1="259.682" y1="343.445" x2="378.683" y2="343.445"/>
	<line fill="none" stroke="#D4D4D4" stroke-width="6" x1="259.682" y1="363.445" x2="315.728" y2="363.445"/>
	<line fill="none" stroke="#D4D4D4" stroke-width="6" x1="259.682" y1="383.445" x2="315.728" y2="383.445"/>
	<line fill="none" stroke="#D4D4D4" stroke-width="6" x1="259.682" y1="403.445" x2="315.728" y2="403.445"/>
</g>
<g id="pdf" display="none">
	<g display="inline">
		<g>
			
				<image overflow="visible" opacity="0.25" width="149" height="83" xlink:href="AFCBEF39.png"  transform="matrix(1 0 0 1 212.638 237.9451)">
			</image>
			<g>
				<path fill="#B70909" d="M343.071,287.143c0,8.311-4.812,15.048-10.745,15.048h-96.443c-5.935,0-10.745-6.737-10.745-15.048
					V265.44c0-8.311,4.81-15.048,10.745-15.048h96.443c5.934,0,10.745,6.737,10.745,15.048V287.143z"/>
			</g>
		</g>
		<path fill="#A30808" d="M340.563,265.44h2.508c0-7.606-5.512-13.794-10.745-13.794h-96.443c-5.233,0-10.745,6.188-10.745,13.794
			l0,0c0-8.989,4.129-16.302,10.745-16.302h96.443c6.617,0,10.745,7.313,10.745,16.302H340.563z"/>
		<path fill="#7A0606" d="M332.325,303.445h-96.443c-6.616,0-10.745-7.313-10.745-16.302l0,0c0,7.606,5.511,13.794,10.745,13.794
			h96.443c5.233,0,10.745-6.188,10.745-13.794l0,0C343.071,296.132,338.943,303.445,332.325,303.445L332.325,303.445z"/>
		<text transform="matrix(1 0 0 1 249.3587 289.6506)" fill="#FFFFFF" font-family="'OpenSans-Semibold'" font-size="37.6201">PDF</text>
	</g>
</g>
</svg>
